<?xml version="1.0" encoding="utf-8"?>
<!-- Generator: Adobe Illustrator 24.0.0, SVG Export Plug-In . SVG Version: 6.00 Build 0)  -->
<svg version="1.1" xmlns="http://www.w3.org/2000/svg" xmlns:xlink="http://www.w3.org/1999/xlink" x="0px" y="0px"
	 viewBox="0 0 200 200" style="enable-background:new 0 0 200 200;" xml:space="preserve">
<style type="text/css">
	.st0{opacity:0.52;fill:#A8B0C6;}
	.st1{fill:#160A0A;}
	.st2{fill:#20130C;}
	.st3{fill:#FFC9A0;}
	.st4{fill:#F7AC89;}
	.st5{fill:#FF9E77;}
	.st6{fill:#C9B895;}
	.st7{fill:#AD9B7D;}
	.st8{fill:none;stroke:#75674E;stroke-miterlimit:10;}
	.st9{fill:none;stroke:#75674E;stroke-linecap:round;stroke-miterlimit:10;}
	.st10{fill:#FA596E;}
	.st11{fill:#FFFFFF;}
	.st12{fill:#CED302;}
	.st13{fill:#4F4C0B;}
	.st14{fill:#4F5F99;}
	.st15{fill:#4F4D0B;}
	.st16{fill:#680A93;}
	.st17{fill:#FFFFFF;stroke:#6575BA;stroke-miterlimit:10;}
	.st18{fill:#FFFFFF;stroke:#B0B8D1;stroke-miterlimit:10;}
	.st19{fill:none;stroke:#B0B8D1;stroke-miterlimit:10;}
	.st20{fill:#DCE0EF;}
	.st21{fill:#099638;}
	.st22{fill:#0B5120;}
	.st23{fill:none;stroke:#75674E;stroke-width:0.25;stroke-miterlimit:10;}
	.st24{fill:none;stroke:#75674E;stroke-width:0.1;stroke-linecap:round;stroke-miterlimit:10;}
	.st25{fill:#D8E20E;}
	.st26{fill:#8C8C0C;}
	.st27{fill:#8F00A3;}
	.st28{fill:#ADAD0C;}
	.st29{fill:#AAAA0C;}
	.st30{display:none;}
	.st31{display:inline;}
	.st32{fill:#9EB7C7;}
</style>
<g id="BACKGROUND">
</g>
<g id="OBJECTS">
	<g>
		<path class="st0" d="M121.74,188.66c0-2.09-11.04-3.78-24.67-3.78s-24.67,1.69-24.67,3.78c0,1.54,6,2.86,14.61,3.46
			c-0.03,0.11-0.05,0.22-0.05,0.33c0,2.09,5.52,3.78,12.33,3.78s12.33-1.69,12.33-3.78c0-0.24-0.08-0.48-0.22-0.71
			C117.66,191.05,121.74,189.93,121.74,188.66z"/>
		<g>
			<path class="st1" d="M89.94,6.73c0,0-4.19,0-5.34,3.43c-1.14,3.43,0.76,8.01,0,11.44c-0.76,3.43-3.46,7.64-3.43,15.25
				c0.02,4.21-2.16,16.86,8.77,28.16c5.43,7.29,14.62,10.02,14.62,10.02s0.17-1.24,0.5-2.98l0.66,2.98c0,0,1.9-2.32,1.99-6.21
				c0,0-0.13,2.07,0.97,2.65c0,0-1.39-1.66,1.76-5.14c3.15-3.48,9.44-7.95,10.77-16.73c1.33-8.78-5.14-13.67-6.21-17.39
				c-1.08-3.73-0.69-10.02-0.84-15.57S107.59,1.49,97.17,3.89c0,0-1.2-1.88-4.54-0.38C90.32,4.56,89.94,6.73,89.94,6.73z"/>
			<path class="st2" d="M86.32,20.35c0,0-6.27,15.25-1.96,28.59c0,0-0.75-5.88-0.33-9.02c0,0,0.73,6.71,2.15,10.06
				c0,0-2.15-16.1,1-21.99C87.17,28,88.03,19.11,86.32,20.35z"/>
			<path class="st2" d="M86.84,29.42c0,0-1.85,8.01,0.75,18.7c2.6,10.68,14.48,21.79,14.48,21.79s-0.9,0.51,3.62-6.51
				c4.52-7.02,7.61-8.45,7.61-16.27s-11.06-24.27-11.06-24.27L86.84,29.42z"/>
			<path class="st2" d="M117.48,40.33c0,0,5.55,6.3-0.83,17.23C116.65,57.56,119.97,48.44,117.48,40.33z"/>
			<path class="st2" d="M89.94,6.73c0,0-4.74,0.81-4.96,6.4c0,0,0.77-4.84,5.23-5.76L89.94,6.73z"/>
			<path class="st2" d="M89.72,8.05c0,0-4.43,1.2-4.75,7.24C84.97,15.29,87.34,8.76,89.72,8.05z"/>
		</g>
		<g>
			<path class="st3" d="M91.46,7.87c0,0-4.74,3.31-5.12,7.89c-0.38,3.05,0.56,4.78,0.56,7.83c0,3.05-0.82,4.31-0.06,5.84
				c0.76,1.53,4.24,5.14,5.77,6.67c1.53,1.53,3.43,1.53,5.72,0c2.29-1.53,5.34-4.58,5.34-4.58s4.19-5.72,4.96-11.82
				C109.39,13.59,102.52,2.15,91.46,7.87z"/>
			<path class="st4" d="M91.46,7.87c0,0-1.6,2,3.45,8.63c5.05,6.63,7.86,7.54,7.16,13.06c-0.32,2.54-3.94,6.43-6.05,7.57
				c0.72-0.16,1.49-0.5,2.3-1.05c2.29-1.53,5.34-4.58,5.34-4.58s4.19-5.72,4.96-11.82C109.39,13.59,102.52,2.15,91.46,7.87z"/>
			<path class="st4" d="M93.59,18.76v5.05l6.21-2.04l-1.08-3.19C98.72,18.58,95.7,17.02,93.59,18.76z"/>
			<path class="st4" d="M86.32,18.46l0.93,4.04l2.89,2.09c0,0,0.72,0.14-0.42-6.35C89.72,18.24,87.19,17.04,86.32,18.46z"/>
			<path class="st2" d="M89.65,17.93c0,0,0.28,0.83-0.27,1.04c-0.55,0.21-0.72-0.79-1.63-1.04s-1.43,0.53-1.43,0.53
				s0.96-1.61,2.19-1.28C89.74,17.52,89.65,17.93,89.65,17.93z"/>
			<path class="st2" d="M93.26,17.43c0,0-0.25,0.99,0.33,1.33c0.58,0.33,1.24-0.41,2.57-0.5c1.33-0.08,2.15,0.32,2.15,0.32
				S97.31,16.98,93.26,17.43z"/>
		</g>
		<g>
			<path class="st3" d="M99.8,37.23V35c0,0,2.14-1.87,3.87-3.48l0.68,6.14L99.8,37.23z"/>
			<path class="st5" d="M104.34,37.65l-0.68-6.14C101.94,33.13,99.8,35,99.8,35S102.04,33.83,104.34,37.65z"/>
		</g>
		<g>
			<path class="st4" d="M90.46,27.9c0,0-0.04-0.55,0.42-0.47c0.45,0.08,2.44,0.23,2.44,0.23S91.66,28.21,90.46,27.9z"/>
		</g>
		<g>
			<g>
				<g>
					<path class="st10" d="M89.97,31.33c0.57-0.35,1.25-0.49,1.91-0.55c0.67-0.06,1.33-0.03,2-0.02c0.66,0.03,1.32,0.05,1.98,0.05
						c0.66,0,1.32-0.04,1.96-0.2c-1.25,0.51-2.64,0.42-3.95,0.4c-0.66-0.03-1.32-0.06-1.97-0.04C91.25,31,90.58,31.07,89.97,31.33z"
						/>
				</g>
			</g>
		</g>
		<g>
			<path class="st11" d="M87.61,26.05c0,0.06-0.1,0.11-0.22,0.11s-0.22-0.05-0.22-0.11c0-0.06,0.1-0.11,0.22-0.11
				S87.61,25.99,87.61,26.05z"/>
			<path class="st11" d="M100.3,24.35c0,0.05-0.11,0.09-0.25,0.09c-0.14,0-0.25-0.04-0.25-0.09c0-0.05,0.11-0.09,0.25-0.09
				C100.19,24.26,100.3,24.3,100.3,24.35z"/>
		</g>
		<path class="st2" d="M89.94,6.73c0,0,0.75-0.07,1.53,1.14l-1.13,0.92C90.34,8.79,90.52,7.82,89.94,6.73z"/>
		<g>
			<path class="st1" d="M91.46,7.87c0,0,0.43-0.09,1.5,3.14s6.13,8.45,9.28,11.84c3.15,3.4,1.42,8.66,1.42,8.66s3.67-2.44,5.01-8.16
				c1.35-5.71-0.39-11.43-3.37-14.33C102.33,6.13,96.17,3.73,91.46,7.87z"/>
			<path class="st2" d="M97.17,3.89c0,0,2.66,1.9,4.9,6.46c0,0-1.79-5.09-4.16-6.61C97.91,3.74,97.53,3.85,97.17,3.89z"/>
			<path class="st2" d="M91.89,6.73c0,0-0.29,0.03,3.06,5.94c3.35,5.91,8.53,6.81,9.94,13.55c0,0,0.41-3.74-1.41-6.74
				c0,0,2.03,5.61,5.2,11.53c3.17,5.92,4.62,10.83,4.62,10.83s0.21-4.34-1.86-9.72c-2.07-5.38-2.75-8.77-2.75-8.77
				s2.42,5.37,3.91,8.77c1.49,3.4,1.49,3.4,1.49,3.4s-2.15-6.95-2.73-10.81c-0.58-3.85-1.24-8.71-1.24-8.71s1.49,4.36,1.99,7.76
				c0,0,0.78-3.54-0.25-9.3s-9.36-9.67-9.36-9.67s2.82,1.99,3.89,3.64c0,0-3.69-2.58-6.08-3.64c0,0,1.86,1.33,4.42,6.96
				c0,0-0.01,2.65-2.66,1.37C99.43,11.84,94.62,5.77,91.89,6.73z"/>
			<path class="st2" d="M92.63,3.51c0,0,5.62-1.67,8.56,11.37c0,0-2.82-11.86-9.97-10.42C91.22,4.47,91.77,3.84,92.63,3.51z"/>
			<path class="st2" d="M90.21,7.05c0,0,1.66-1.31,4.47,0.33c2.81,1.64,3.52,2.73,3.52,2.73s-2.44-4.59-6.98-5.64
				c0,0-0.88,0.65-1.28,2.26L90.21,7.05z"/>
			<path class="st2" d="M97.17,3.89c0,0,1.75,1.62,2.69,3.87c0,0-3.05-4.34-7.23-4.25C92.63,3.51,95.59,2.02,97.17,3.89z"/>
			<path class="st1" d="M93.59,8.45c0,0,1.12,2.36,2.9,5.14s3.47,3.31,3.47,3.31"/>
			<path class="st1" d="M107.46,9.14c0,0,2.53,1.85,3.73,6.37"/>
		</g>
		<g>
			<g>
				<path class="st14" d="M99.8,37.28l0.29-0.02l-0.29-0.03C99.8,37.23,99.8,37.25,99.8,37.28z"/>
			</g>
		</g>
		<g>
			<path class="st11" d="M99.8,20.91c-0.19-1.19-2.03-1.99-3.89-0.83c-1.86,1.16-2.32,3.73-2.32,3.73s1.78,1.21,4.72,0.25
				C99.8,23.6,100.01,22.2,99.8,20.91z"/>
			<path class="st20" d="M96.65,20.88c1.42-0.54,2.59,0.07,3.21,0.55c-0.01-0.17-0.03-0.35-0.06-0.52
				c-0.19-1.19-2.03-1.99-3.89-0.83s-2.32,3.73-2.32,3.73s0.02,0.01,0.05,0.03C94.14,23,94.99,21.5,96.65,20.88z"/>
			<path class="st21" d="M96.31,19.86c0,0-0.74,0.84-0.45,2.83c0.29,1.99,2.19,1.74,2.82,1.12c0.62-0.62,1-2.02,0.27-3.95
				C98.95,19.86,98.21,19.02,96.31,19.86z"/>
			<path class="st22" d="M97.71,20.85c0.75,0.02,1.25,0.13,1.58,0.27c-0.06-0.39-0.17-0.81-0.34-1.26c0,0-0.74-0.84-2.64,0
				c0,0-0.39,0.45-0.49,1.44C96.23,21.04,96.83,20.82,97.71,20.85z"/>
			<path class="st2" d="M98.47,21.73c0,0.64-0.41,1.16-0.91,1.16c-0.5,0-0.91-0.52-0.91-1.16c0-0.64,0.41-1.16,0.91-1.16
				C98.06,20.56,98.47,21.08,98.47,21.73z"/>
			<path class="st11" d="M97.19,21.06c0,0.15-0.12,0.27-0.27,0.27c-0.15,0-0.27-0.12-0.27-0.27c0-0.15,0.12-0.27,0.27-0.27
				C97.07,20.79,97.19,20.91,97.19,21.06z"/>
			<path class="st11" d="M98.03,22.79c0,0.05-0.04,0.1-0.1,0.1c-0.05,0-0.1-0.04-0.1-0.1c0-0.05,0.04-0.1,0.1-0.1
				C97.98,22.7,98.03,22.74,98.03,22.79z"/>
			<path class="st2" d="M99.19,19.97c0,0,0.3-0.24,0.27-0.69c0,0,0.16,0.55-0.09,0.94L99.19,19.97z"/>
			<path class="st2" d="M98.91,19.75c0,0,0.3-0.24,0.27-0.69c0,0,0.16,0.55-0.09,0.94L98.91,19.75z"/>
			<path class="st2" d="M98.59,19.59c0,0,0.3-0.24,0.27-0.69c0,0,0.16,0.55-0.09,0.94L98.59,19.59z"/>
		</g>
		<g>
			<path class="st11" d="M90.44,24.1c0.2-1.88-0.95-3.98-2.03-3.73c-1.08,0.25-1.24,1.4-1.24,1.4s0,1.61,0.85,2.48
				C88.87,25.14,90.3,25.44,90.44,24.1z"/>
			<path class="st20" d="M88.41,20.37c-0.71,0.16-1.02,0.72-1.16,1.08c0.38-0.15,0.84-0.22,1.2,0.04c0.72,0.52,1.48,2.2,1.65,3.32
				c0.18-0.15,0.3-0.38,0.33-0.72C90.64,22.22,89.49,20.13,88.41,20.37z"/>
			<path class="st21" d="M88.99,20.41c0,0-0.81,0.94-0.64,2.48c0.17,1.53,0.75,1.87,1.38,1.83c0.62-0.04,0.73-0.5,0.72-1.41
				C90.43,22.4,89.57,20.45,88.99,20.41z"/>
			<path class="st22" d="M90.41,23.81c0,0.01,0,0.02,0.01,0.03c0.02-0.16,0.02-0.34,0.02-0.52c-0.01-0.91-0.87-2.86-1.45-2.9
				c0,0-0.39,0.37-0.53,1.09C89.07,21.86,90,22.61,90.41,23.81z"/>
			<path class="st2" d="M89.85,21.41c-0.39,0.09-0.68,0.63-0.68,1.28c0,0.72,0.36,1.3,0.8,1.3c0.18,0,0.34-0.1,0.48-0.26
				C90.35,22.65,90.03,21.81,89.85,21.41z"/>
			<path class="st11" d="M89.45,22.28c0,0.12-0.1,0.22-0.22,0.22c-0.12,0-0.22-0.1-0.22-0.22s0.1-0.22,0.22-0.22
				C89.35,22.06,89.45,22.16,89.45,22.28z"/>
			<path class="st11" d="M90.13,23.69c0,0.04-0.04,0.08-0.08,0.08c-0.04,0-0.08-0.04-0.08-0.08c0-0.04,0.04-0.08,0.08-0.08
				C90.1,23.62,90.13,23.65,90.13,23.69z"/>
			<path class="st2" d="M87.59,20.88c0,0-0.23-0.18-0.2-0.52c0,0-0.12,0.42,0.07,0.7L87.59,20.88z"/>
			<path class="st2" d="M87.79,20.69c0,0-0.23-0.18-0.2-0.52c0,0-0.12,0.42,0.07,0.7L87.79,20.69z"/>
			<path class="st2" d="M87.41,21.12c0,0-0.23-0.18-0.2-0.52c0,0-0.12,0.42,0.07,0.7L87.41,21.12z"/>
		</g>
	</g>
</g>
<g class="st30">
</g>
</svg>
