<?xml version="1.0" encoding="utf-8"?>
<!-- Generator: Adobe Illustrator 24.0.0, SVG Export Plug-In . SVG Version: 6.00 Build 0)  -->
<svg version="1.1" xmlns="http://www.w3.org/2000/svg" xmlns:xlink="http://www.w3.org/1999/xlink" x="0px" y="0px"
	 viewBox="0 0 200 200" style="enable-background:new 0 0 200 200;" xml:space="preserve">
<style type="text/css">
	.st0{opacity:0.52;fill:#A8B0C6;}
	.st1{fill:#160A0A;}
	.st2{fill:#20130C;}
	.st3{fill:#FFC9A0;}
	.st4{fill:#F7AC89;}
	.st5{fill:#FF9E77;}
	.st6{fill:#C9B895;}
	.st7{fill:#AD9B7D;}
	.st8{fill:none;stroke:#75674E;stroke-miterlimit:10;}
	.st9{fill:none;stroke:#75674E;stroke-linecap:round;stroke-miterlimit:10;}
	.st10{fill:#FA596E;}
	.st11{fill:#FFFFFF;}
	.st12{fill:#CED302;}
	.st13{fill:#4F4C0B;}
	.st14{fill:#4F5F99;}
	.st15{fill:#4F4D0B;}
	.st16{fill:#680A93;}
	.st17{fill:#FFFFFF;stroke:#6575BA;stroke-miterlimit:10;}
	.st18{fill:#FFFFFF;stroke:#B0B8D1;stroke-miterlimit:10;}
	.st19{fill:none;stroke:#B0B8D1;stroke-miterlimit:10;}
	.st20{fill:#DCE0EF;}
	.st21{fill:#099638;}
	.st22{fill:#0B5120;}
	.st23{fill:none;stroke:#75674E;stroke-width:0.25;stroke-miterlimit:10;}
	.st24{fill:none;stroke:#75674E;stroke-width:0.1;stroke-linecap:round;stroke-miterlimit:10;}
	.st25{fill:#D8E20E;}
	.st26{fill:#8C8C0C;}
	.st27{fill:#8F00A3;}
	.st28{fill:#ADAD0C;}
	.st29{fill:#AAAA0C;}
	.st30{display:none;}
	.st31{display:inline;}
	.st32{fill:#9EB7C7;}
</style>
<g id="BACKGROUND">
</g>
<g id="OBJECTS">
	<g>
		<path class="st0" d="M121.58,188.33c0-2.09-11.05-3.79-24.68-3.79s-24.68,1.69-24.68,3.79c0,1.54,6,2.87,14.62,3.46
			c-0.03,0.11-0.05,0.22-0.05,0.33c0,2.09,5.52,3.79,12.33,3.79c6.81,0,12.33-1.69,12.33-3.79c0-0.24-0.08-0.48-0.22-0.71
			C117.5,190.72,121.58,189.6,121.58,188.33z"/>
		<g>
			<path class="st1" d="M89.77,6.33c0,0-4.2,0-5.34,3.43c-1.14,3.43,0.76,8.01,0,11.44c-0.76,3.43-3.47,7.64-3.43,15.26
				c0.02,4.21-2.16,16.86,8.77,28.17c5.43,7.29,14.63,10.03,14.63,10.03s0.17-1.24,0.5-2.98l0.66,2.98c0,0,1.91-2.32,1.99-6.21
				c0,0-0.13,2.07,0.97,2.65c0,0-1.39-1.66,1.76-5.14c3.15-3.48,9.45-7.95,10.77-16.74c1.33-8.78-5.14-13.67-6.21-17.4
				c-1.08-3.73-0.7-10.03-0.84-15.58C113.84,10.71,107.43,1.09,97,3.5c0,0-1.2-1.88-4.54-0.38C90.14,4.16,89.77,6.33,89.77,6.33z"/>
			<path class="st2" d="M86.14,19.96c0,0-6.27,15.26-1.96,28.6c0,0-0.75-5.88-0.33-9.03c0,0,0.73,6.71,2.15,10.07
				c0,0-2.15-16.11,1-21.99C87,27.61,87.86,18.72,86.14,19.96z"/>
			<path class="st2" d="M86.66,29.04c0,0-1.85,8.02,0.75,18.7c2.6,10.69,14.49,21.8,14.49,21.8s-0.9,0.51,3.62-6.51
				c4.52-7.02,7.61-8.45,7.61-16.28s-11.06-24.28-11.06-24.28L86.66,29.04z"/>
			<path class="st2" d="M117.32,39.95c0,0,5.55,6.3-0.83,17.24C116.49,57.19,119.81,48.06,117.32,39.95z"/>
			<path class="st2" d="M89.77,6.33c0,0-4.74,0.81-4.97,6.4c0,0,0.78-4.84,5.23-5.76L89.77,6.33z"/>
			<path class="st2" d="M89.55,7.66c0,0-4.43,1.2-4.75,7.24C84.8,14.9,87.17,8.36,89.55,7.66z"/>
		</g>
		<g>
			<path class="st3" d="M91.29,7.48c0,0-4.74,3.31-5.13,7.89c-0.38,3.05,0.56,4.78,0.56,7.83c0,3.05-0.83,4.32-0.06,5.84
				c0.76,1.53,4.25,5.14,5.77,6.67c1.53,1.53,3.43,1.53,5.72,0c2.29-1.53,5.34-4.58,5.34-4.58s4.2-5.72,4.96-11.83
				C109.22,13.2,102.36,1.76,91.29,7.48z"/>
			<path class="st4" d="M91.29,7.48c0,0-1.6,2,3.45,8.64c5.05,6.63,7.87,7.54,7.16,13.07c-0.32,2.54-3.94,6.43-6.05,7.57
				c0.72-0.16,1.49-0.5,2.3-1.05c2.29-1.53,5.34-4.58,5.34-4.58s4.2-5.72,4.96-11.83C109.22,13.2,102.36,1.76,91.29,7.48z"/>
			<path class="st4" d="M93.42,18.37v5.05l6.21-2.04l-1.08-3.19C98.55,18.19,95.53,16.63,93.42,18.37z"/>
			<path class="st4" d="M86.14,18.07l0.93,4.04l2.89,2.09c0,0,0.72,0.14-0.42-6.35C89.54,17.85,87.02,16.65,86.14,18.07z"/>
			<path class="st2" d="M89.48,17.54c0,0,0.28,0.83-0.27,1.04c-0.55,0.21-0.72-0.79-1.63-1.04c-0.91-0.25-1.43,0.53-1.43,0.53
				s0.96-1.61,2.19-1.28C89.56,17.13,89.48,17.54,89.48,17.54z"/>
			<path class="st2" d="M93.09,17.04c0,0-0.25,0.99,0.33,1.33c0.58,0.33,1.24-0.41,2.57-0.5c1.33-0.08,2.15,0.32,2.15,0.32
				S97.15,16.59,93.09,17.04z"/>
		</g>
		<g>
			<path class="st3" d="M99.63,36.85v-2.24c0,0,2.14-1.87,3.87-3.49l0.68,6.14L99.63,36.85z"/>
			<path class="st5" d="M104.18,37.27l-0.68-6.14c-1.73,1.61-3.87,3.49-3.87,3.49S101.87,33.45,104.18,37.27z"/>
		</g>
		<g>
			<path class="st4" d="M90.29,27.52c0,0-0.04-0.55,0.42-0.47s2.44,0.23,2.44,0.23S91.49,27.82,90.29,27.52z"/>
		</g>
		<g>
			<g>
				<g>
					<path class="st10" d="M89.8,30.95c0.57-0.35,1.25-0.49,1.91-0.55c0.67-0.06,1.33-0.03,2-0.02c0.66,0.03,1.32,0.05,1.98,0.05
						c0.66,0,1.32-0.04,1.96-0.2c-1.25,0.51-2.64,0.42-3.95,0.4c-0.66-0.03-1.32-0.06-1.98-0.04C91.08,30.62,90.41,30.69,89.8,30.95
						z"/>
				</g>
			</g>
		</g>
		<g>
			<path class="st11" d="M87.44,25.67c0,0.06-0.1,0.11-0.22,0.11S87,25.73,87,25.67c0-0.06,0.1-0.11,0.22-0.11
				S87.44,25.61,87.44,25.67z"/>
			<path class="st11" d="M100.14,23.96c0,0.05-0.11,0.09-0.25,0.09c-0.14,0-0.25-0.04-0.25-0.09c0-0.05,0.11-0.09,0.25-0.09
				C100.02,23.87,100.14,23.91,100.14,23.96z"/>
		</g>
		<path class="st2" d="M89.77,6.33c0,0,0.75-0.07,1.53,1.14L90.16,8.4C90.16,8.4,90.35,7.43,89.77,6.33z"/>
		<g>
			<path class="st1" d="M91.29,7.48c0,0,0.43-0.09,1.5,3.14c1.08,3.23,6.13,8.45,9.28,11.85c3.15,3.4,1.42,8.66,1.42,8.66
				s3.67-2.44,5.02-8.16c1.35-5.72-0.39-11.43-3.38-14.33C102.16,5.73,96,3.34,91.29,7.48z"/>
			<path class="st2" d="M97,3.5c0,0,2.66,1.91,4.9,6.46c0,0-1.79-5.09-4.16-6.61C97.74,3.35,97.36,3.46,97,3.5z"/>
			<path class="st2" d="M91.72,6.33c0,0-0.29,0.03,3.06,5.95c3.36,5.91,8.53,6.81,9.94,13.56c0,0,0.41-3.74-1.41-6.74
				c0,0,2.03,5.61,5.2,11.54c3.17,5.92,4.62,10.83,4.62,10.83s0.21-4.34-1.86-9.72c-2.07-5.38-2.76-8.78-2.76-8.78
				s2.42,5.37,3.92,8.78c1.49,3.4,1.49,3.4,1.49,3.4s-2.15-6.95-2.73-10.81c-0.58-3.86-1.24-8.71-1.24-8.71s1.49,4.36,1.99,7.76
				c0,0,0.78-3.54-0.25-9.31c-1.03-5.77-9.36-9.67-9.36-9.67s2.82,1.99,3.89,3.65c0,0-3.69-2.58-6.08-3.65c0,0,1.86,1.33,4.43,6.96
				c0,0-0.01,2.65-2.66,1.37S94.45,5.38,91.72,6.33z"/>
			<path class="st2" d="M92.46,3.12c0,0,5.62-1.67,8.56,11.38c0,0-2.83-11.86-9.98-10.42C91.05,4.07,91.6,3.45,92.46,3.12z"/>
			<path class="st2" d="M90.04,6.65c0,0,1.66-1.31,4.47,0.33c2.81,1.64,3.52,2.73,3.52,2.73s-2.44-4.6-6.98-5.64
				c0,0-0.89,0.65-1.28,2.26L90.04,6.65z"/>
			<path class="st2" d="M97,3.5c0,0,1.75,1.62,2.69,3.87c0,0-3.05-4.35-7.23-4.25C92.46,3.12,95.42,1.62,97,3.5z"/>
			<path class="st1" d="M93.42,8.05c0,0,1.12,2.36,2.9,5.14s3.47,3.31,3.47,3.31"/>
			<path class="st1" d="M107.3,8.75c0,0,2.53,1.85,3.73,6.38"/>
		</g>
		<g>
			<path class="st25" d="M105.97,42.27c0,0-1.38-1.44-1.79-5l-4.55-0.42c0,0,0.04,1.44-0.79,3.52c0,0-4.31,0.41-7.87,0
				C87.41,39.95,87,57.19,87,57.19l2.56,4.47c0,0-0.21,3.65-0.34,6.63h11.82l0.47-1.91c0,0,0.58-0.41,0.58-1.08c0,0,0.66-0.5,0-1.33
				c0,0,4.39-6.46,5.72-9.78c0,0,1.09-2.64,1.32-3.54c0.29-1.1,0.95-5.04,1.12-5.87C109.27,43.99,107.98,43.18,105.97,42.27z"/>
			<g>
				<path class="st14" d="M99.63,36.9l0.29-0.02l-0.29-0.03C99.63,36.85,99.63,36.87,99.63,36.9z"/>
			</g>
			<path class="st28" d="M107.79,54.2c0,0-3.81,5.78-7.04,6.84c0,0,1.95-0.17,2.49-0.38c0,0-2.35,3.48-3.42,4.47
				c0,0,0.93,0,1.64-0.5c0,0-1.33,1.53-1.86,1.33c0,0,0,0,1.44,0c0,0-1.48,1.57-3.72,2.32h3.72l0.47-1.91c0,0,0.66-0.5,0.58-1.08
				c0,0,0.79-0.5,0-1.33C102.08,63.98,106.38,57.64,107.79,54.2z"/>
		</g>
		<g>
			<path class="st11" d="M99.63,20.52c-0.19-1.19-2.03-1.99-3.89-0.83c-1.86,1.16-2.32,3.73-2.32,3.73s1.78,1.21,4.72,0.25
				C99.63,23.22,99.84,21.81,99.63,20.52z"/>
			<path class="st20" d="M96.48,20.49c1.42-0.54,2.59,0.07,3.21,0.56c-0.01-0.17-0.03-0.35-0.06-0.52
				c-0.19-1.19-2.03-1.99-3.89-0.83c-1.86,1.16-2.32,3.73-2.32,3.73s0.02,0.01,0.05,0.03C93.97,22.62,94.82,21.11,96.48,20.49z"/>
			<path class="st21" d="M96.14,19.47c0,0-0.74,0.84-0.45,2.83c0.29,1.99,2.2,1.74,2.82,1.12c0.62-0.62,1-2.02,0.27-3.95
				C98.79,19.47,98.04,18.63,96.14,19.47z"/>
			<path class="st22" d="M97.54,20.46c0.75,0.02,1.25,0.13,1.58,0.27c-0.06-0.39-0.17-0.81-0.34-1.26c0,0-0.74-0.84-2.64,0
				c0,0-0.39,0.45-0.49,1.45C96.06,20.65,96.66,20.44,97.54,20.46z"/>
			<path class="st2" d="M98.3,21.34c0,0.64-0.41,1.17-0.91,1.17c-0.5,0-0.91-0.52-0.91-1.17c0-0.64,0.41-1.17,0.91-1.17
				C97.89,20.17,98.3,20.69,98.3,21.34z"/>
			<path class="st11" d="M97.02,20.67c0,0.15-0.12,0.27-0.27,0.27c-0.15,0-0.27-0.12-0.27-0.27c0-0.15,0.12-0.27,0.27-0.27
				C96.9,20.4,97.02,20.52,97.02,20.67z"/>
			<path class="st11" d="M97.86,22.4c0,0.05-0.04,0.1-0.1,0.1c-0.05,0-0.1-0.04-0.1-0.1c0-0.05,0.04-0.1,0.1-0.1
				C97.82,22.31,97.86,22.35,97.86,22.4z"/>
			<path class="st2" d="M99.02,19.58c0,0,0.3-0.24,0.27-0.69c0,0,0.16,0.55-0.09,0.94L99.02,19.58z"/>
			<path class="st2" d="M98.75,19.36c0,0,0.3-0.24,0.27-0.69c0,0,0.16,0.55-0.09,0.94L98.75,19.36z"/>
			<path class="st2" d="M98.43,19.2c0,0,0.3-0.24,0.27-0.69c0,0,0.16,0.55-0.09,0.94L98.43,19.2z"/>
		</g>
		<g>
			<path class="st11" d="M90.27,23.71c0.2-1.88-0.95-3.98-2.03-3.73c-1.08,0.25-1.24,1.4-1.24,1.4s0,1.61,0.85,2.49
				C88.69,24.75,90.13,25.05,90.27,23.71z"/>
			<path class="st20" d="M88.24,19.99c-0.71,0.16-1.02,0.72-1.16,1.08c0.38-0.15,0.84-0.22,1.2,0.04c0.72,0.52,1.48,2.2,1.65,3.33
				c0.18-0.15,0.3-0.38,0.33-0.72C90.47,21.84,89.32,19.74,88.24,19.99z"/>
			<path class="st21" d="M88.82,20.02c0,0-0.81,0.94-0.64,2.48c0.17,1.53,0.75,1.87,1.38,1.83c0.62-0.04,0.73-0.5,0.72-1.41
				C90.26,22.01,89.4,20.06,88.82,20.02z"/>
			<path class="st22" d="M90.24,23.42c0,0.01,0,0.02,0.01,0.03c0.02-0.16,0.02-0.34,0.02-0.52c-0.01-0.91-0.87-2.86-1.45-2.9
				c0,0-0.39,0.37-0.53,1.09C88.9,21.47,89.83,22.22,90.24,23.42z"/>
			<path class="st2" d="M89.68,21.02C89.29,21.11,89,21.64,89,22.3c0,0.72,0.36,1.3,0.8,1.3c0.18,0,0.34-0.1,0.48-0.26
				C90.18,22.26,89.86,21.42,89.68,21.02z"/>
			<path class="st11" d="M89.28,21.89c0,0.12-0.1,0.22-0.22,0.22s-0.22-0.1-0.22-0.22c0-0.12,0.1-0.22,0.22-0.22
				S89.28,21.77,89.28,21.89z"/>
			<path class="st11" d="M89.96,23.31c0,0.04-0.04,0.08-0.08,0.08s-0.08-0.04-0.08-0.08s0.04-0.08,0.08-0.08
				S89.96,23.26,89.96,23.31z"/>
			<path class="st2" d="M87.42,20.49c0,0-0.23-0.18-0.2-0.52c0,0-0.12,0.42,0.07,0.7L87.42,20.49z"/>
			<path class="st2" d="M87.62,20.3c0,0-0.23-0.18-0.2-0.52c0,0-0.12,0.42,0.07,0.7L87.62,20.3z"/>
			<path class="st2" d="M87.24,20.73c0,0-0.23-0.18-0.2-0.52c0,0-0.12,0.42,0.07,0.7L87.24,20.73z"/>
		</g>
	</g>
</g>
<g class="st30">
</g>
</svg>
