<?xml version="1.0" encoding="utf-8"?>
<!-- Generator: Adobe Illustrator 24.0.0, SVG Export Plug-In . SVG Version: 6.00 Build 0)  -->
<svg version="1.1" xmlns="http://www.w3.org/2000/svg" xmlns:xlink="http://www.w3.org/1999/xlink" x="0px" y="0px"
	 viewBox="0 0 200 200" style="enable-background:new 0 0 200 200;" xml:space="preserve">
<style type="text/css">
	.st0{opacity:0.52;fill:#A8B0C6;}
	.st1{fill:#160A0A;}
	.st2{fill:#20130C;}
	.st3{fill:#FFC9A0;}
	.st4{fill:#F7AC89;}
	.st5{fill:#FF9E77;}
	.st6{fill:#C9B895;}
	.st7{fill:#AD9B7D;}
	.st8{fill:none;stroke:#75674E;stroke-miterlimit:10;}
	.st9{fill:none;stroke:#75674E;stroke-linecap:round;stroke-miterlimit:10;}
	.st10{fill:#FA596E;}
	.st11{fill:#FFFFFF;}
	.st12{fill:#CED302;}
	.st13{fill:#4F4C0B;}
	.st14{fill:#4F5F99;}
	.st15{fill:#4F4D0B;}
	.st16{fill:#680A93;}
	.st17{fill:#FFFFFF;stroke:#6575BA;stroke-miterlimit:10;}
	.st18{fill:#FFFFFF;stroke:#B0B8D1;stroke-miterlimit:10;}
	.st19{fill:none;stroke:#B0B8D1;stroke-miterlimit:10;}
	.st20{fill:#DCE0EF;}
	.st21{fill:#099638;}
	.st22{fill:#0B5120;}
	.st23{fill:none;stroke:#75674E;stroke-width:0.25;stroke-miterlimit:10;}
	.st24{fill:none;stroke:#75674E;stroke-width:0.1;stroke-linecap:round;stroke-miterlimit:10;}
	.st25{fill:#D8E20E;}
	.st26{fill:#8C8C0C;}
	.st27{fill:#8F00A3;}
	.st28{fill:#ADAD0C;}
	.st29{fill:#AAAA0C;}
	.st30{display:none;}
	.st31{display:inline;}
	.st32{fill:#9EB7C7;}
</style>
<g id="BACKGROUND">
</g>
<g id="OBJECTS">
	<g>
		<path class="st0" d="M121.71,188.44c0-2.09-11.03-3.78-24.64-3.78s-24.64,1.69-24.64,3.78c0,1.54,6,2.86,14.6,3.45
			c-0.03,0.11-0.05,0.22-0.05,0.33c0,2.09,5.51,3.78,12.32,3.78c6.8,0,12.32-1.69,12.32-3.78c0-0.24-0.08-0.48-0.22-0.7
			C117.64,190.83,121.71,189.71,121.71,188.44z"/>
		<g>
			<path class="st1" d="M89.95,6.67c0,0-4.19,0-5.33,3.43c-1.14,3.43,0.76,8,0,11.43c-0.76,3.43-3.46,7.63-3.43,15.24
				c0.02,4.21-2.16,16.84,8.76,28.14c5.43,7.28,14.61,10.01,14.61,10.01s0.17-1.24,0.5-2.98l0.66,2.98c0,0,1.9-2.32,1.99-6.21
				c0,0-0.13,2.07,0.97,2.65c0,0-1.39-1.65,1.76-5.13c3.14-3.48,9.43-7.94,10.76-16.72c1.32-8.77-5.13-13.65-6.21-17.38
				c-1.08-3.72-0.69-10.01-0.84-15.56c-0.15-5.54-6.55-15.14-16.96-12.74c0,0-1.2-1.88-4.53-0.38C90.32,4.5,89.95,6.67,89.95,6.67z"
				/>
			<path class="st2" d="M86.33,20.29c0,0-6.26,15.24-1.96,28.57c0,0-0.74-5.87-0.33-9.02c0,0,0.73,6.7,2.14,10.05
				c0,0-2.14-16.09,1-21.97C87.18,27.92,88.04,19.04,86.33,20.29z"/>
			<path class="st2" d="M86.85,29.35c0,0-1.85,8.01,0.75,18.68c2.6,10.67,14.47,21.77,14.47,21.77s-0.9,0.51,3.61-6.51
				c4.52-7.01,7.6-8.44,7.6-16.26s-11.05-24.25-11.05-24.25L86.85,29.35z"/>
			<path class="st2" d="M117.46,40.24c0,0,5.54,6.3-0.83,17.22C116.64,57.46,119.95,48.35,117.46,40.24z"/>
			<path class="st2" d="M89.95,6.67c0,0-4.74,0.81-4.96,6.39c0,0,0.77-4.84,5.23-5.75L89.95,6.67z"/>
			<path class="st2" d="M89.73,8c0,0-4.43,1.2-4.75,7.23C84.99,15.23,87.35,8.7,89.73,8z"/>
		</g>
		<g>
			<path class="st3" d="M91.47,7.82c0,0-4.74,3.31-5.12,7.88c-0.38,3.05,0.56,4.77,0.56,7.82c0,3.05-0.82,4.31-0.06,5.83
				c0.76,1.52,4.24,5.14,5.77,6.66c1.52,1.52,3.43,1.52,5.71,0c2.29-1.52,5.33-4.57,5.33-4.57s4.19-5.71,4.95-11.81
				C109.38,13.53,102.52,2.1,91.47,7.82z"/>
			<path class="st4" d="M91.47,7.82c0,0-1.6,2,3.45,8.63c5.05,6.62,7.86,7.53,7.15,13.05c-0.32,2.54-3.93,6.42-6.04,7.56
				c0.72-0.16,1.49-0.5,2.3-1.05c2.29-1.52,5.33-4.57,5.33-4.57s4.19-5.71,4.95-11.81C109.38,13.53,102.52,2.1,91.47,7.82z"/>
			<path class="st4" d="M93.59,18.7v5.05l6.21-2.03l-1.08-3.19C98.72,18.52,95.7,16.96,93.59,18.7z"/>
			<path class="st4" d="M86.33,18.4l0.92,4.03l2.89,2.09c0,0,0.72,0.14-0.42-6.34C89.72,18.18,87.2,16.98,86.33,18.4z"/>
			<path class="st2" d="M89.66,17.87c0,0,0.28,0.83-0.27,1.03c-0.55,0.21-0.72-0.79-1.63-1.03s-1.43,0.53-1.43,0.53
				s0.96-1.61,2.19-1.28C89.74,17.45,89.66,17.87,89.66,17.87z"/>
			<path class="st2" d="M93.26,17.37c0,0-0.25,0.99,0.33,1.32c0.58,0.33,1.24-0.41,2.57-0.5c1.32-0.08,2.15,0.32,2.15,0.32
				S97.32,16.92,93.26,17.37z"/>
		</g>
		<g>
			<path class="st3" d="M99.8,37.15v-2.23c0,0,2.14-1.87,3.86-3.48l0.68,6.13L99.8,37.15z"/>
			<path class="st5" d="M104.34,37.57l-0.68-6.13c-1.73,1.61-3.86,3.48-3.86,3.48S102.03,33.76,104.34,37.57z"/>
		</g>
		<g>
			<path class="st3" d="M94.55,155.76l-0.5,5.39l4.88,1.16c0,0,0.04-4.21,0.46-6.05C99.38,156.25,96.82,156.33,94.55,155.76z"/>
			<path class="st5" d="M98.12,158.67c0.53,1.09,0.73,2.33,0.82,3.12c0.03-1.18,0.12-4.09,0.45-5.54c0,0-2.56,0.08-4.84-0.49
				C94.55,155.76,97.26,156.89,98.12,158.67z"/>
		</g>
		<path class="st3" d="M67.57,84.11l-0.83,1.32c0,0-3.39-0.33-4.88,0c-1.49,0.33-4.55,2.9-5.63,3.48c0,0,0.99,0.83,3.14-0.58
			c2.15-1.41,5.44-0.58,5.44-0.58s-0.81,1.24-1.49,1.8c-0.68,0.56-3.1,1.37-2.3,1.8c0.81,0.43,3.79-0.99,4.59-1.49
			c0.81-0.5,1.92-0.5,3.04-0.87c1.12-0.37,2.21-2.5,2.21-2.5L67.57,84.11z"/>
		<g>
			<path class="st6" d="M89.39,68.55c0,0-0.06,3.23-1.42,6.37c-1.37,3.14-10.05,18.04-3.85,36.91c6.21,18.87,9.68,25.07,9.68,25.07
				v11.42c0,0-1.74,4.47-1.86,5.71c-0.12,1.24,4.59,2.98,10.18,1.86c0,0,5.34-0.62,7.2-4.59c0,0-4.84-5.34-5.71-8.32
				c0,0,1.74-8.94,0.5-19.11c-1.24-10.18,3.1-11.3,5.21-23.34c2.11-12.04,0.37-18.16-5.46-27.95c-1.24-2.09-2.66-4.03-2.66-4.03
				H89.39z"/>
			<path class="st7" d="M103.85,72.59c-1.24-2.09-2.66-4.03-2.66-4.03h-3.71c0,0,7.78,10.01,8.2,21.8
				c0.42,11.79-4.16,20.89-4.26,31.15c-0.08,8.7-0.31,28.81-0.74,34.74c0.84-0.05,0.53-0.18,1.43-0.36l0,0c0,0,0.17-9.6,1.49-12.91
				c0,0,1.74-8.94,0.5-19.12c-1.24-10.18,3.1-11.3,5.21-23.34C111.42,88.49,109.69,82.37,103.85,72.59z"/>
			<path class="st7" d="M93.8,136.9c0,0,0.41-14.73,0.25-16.72c-0.17-1.99-0.66-8.11-0.83-16.38c-0.17-8.27-2.48-17.31-2.48-17.31
				s1.65,14.04,1.67,20.25S93.8,136.9,93.8,136.9z"/>
			<path class="st8" d="M102.58,77.51c0,0,4.68,10.73,2.54,21.66c-2.14,10.93-3.93,16.55-3.7,22.35c0.23,5.79,0.13,20.03-0.23,26.15
				c-0.36,6.12-0.51,8.59-0.51,8.59"/>
			<path class="st7" d="M103.6,142.98c0,0-1.53,4.76-1.49,6c0.04,1.24,0,6.91,0,6.91l2.05-0.5l-0.98-6.95l1.42-3.32
				C104.61,145.12,104.16,144.41,103.6,142.98z"/>
			<line class="st8" x1="107.5" y1="153.61" x2="102.86" y2="145.47"/>
			<path class="st9" d="M100.5,79.93c0,0,1.23,9.18,4.79,7.84"/>
			<path class="st8" d="M89.05,71.32c0,0,5.61,0.54,13.84-0.27"/>
			<line class="st8" x1="92.72" y1="68.55" x2="92.72" y2="71.49"/>
			<line class="st8" x1="96.78" y1="68.55" x2="96.78" y2="71.49"/>
			<line class="st8" x1="100.5" y1="71.27" x2="100.91" y2="72.15"/>
		</g>
		<g>
			<path class="st3" d="M108.67,73.6l-2.99,2.19c0,0-2.39-2.57-3.88-3.5c-1.49-0.93-5.32,3.04-5.32,3.04s0.23,0.48,0.66,0.46
				c0.43-0.02,1.53-0.58,1.53-0.58s-0.72,3.97-0.66,4.72c0.06,0.74,0.99,0,0.99,0s0.43,0.62,1.49,0c1.06-0.62,2.08-2.42,2.08-2.42
				s1.65,1.92,2.95,1.99c1.3,0.06,5.48-2.42,5.48-2.42S111.32,75.96,108.67,73.6z"/>
			<g>
				<path class="st5" d="M98.68,75.21c0.15-0.61,0.53-0.99,0.99-1.25c0.23-0.12,0.52-0.22,0.8-0.22c0.26,0,0.52,0.03,0.82,0.15
					c-0.17,0.27-0.37,0.45-0.59,0.59c-0.2,0.14-0.36,0.24-0.56,0.36C99.74,75.04,99.31,75.23,98.68,75.21z"/>
			</g>
			<g>
				<path class="st5" d="M99.01,79.93c-0.17-0.68-0.02-1.27,0.21-1.82c0.13-0.27,0.28-0.53,0.49-0.76c0.2-0.23,0.45-0.45,0.79-0.57
					c0.01,0.69-0.14,1.21-0.37,1.74C99.88,79.03,99.58,79.52,99.01,79.93z"/>
			</g>
		</g>
		<g>
			<path class="st4" d="M90.47,27.83c0,0-0.04-0.55,0.42-0.47c0.45,0.08,2.44,0.23,2.44,0.23S91.67,28.14,90.47,27.83z"/>
			<g>
				<path class="st4" d="M90.72,24.3c0.06,0.48,0.09,0.97,0.09,1.46c0,0.24,0.05,0.5-0.05,0.73c-0.1,0.23-0.24,0.46-0.5,0.63
					l-0.07-0.02c-0.13-0.28-0.16-0.52-0.16-0.76c0-0.23,0.12-0.45,0.19-0.67c0.14-0.45,0.28-0.91,0.43-1.37L90.72,24.3z"/>
			</g>
		</g>
		<g>
			<g>
				<g>
					<path class="st10" d="M89.98,31.26c0.51-0.5,1.21-0.72,1.89-0.85c0.7-0.12,1.37-0.11,2.03-0.1c0.66,0.03,1.31,0.08,1.95,0.13
						c0.65,0.05,1.28,0.1,1.97,0.09c-0.57,0.41-1.27,0.6-1.94,0.69c-0.68,0.1-1.35,0.1-2.01,0.09
						C92.52,31.26,91.33,31.05,89.98,31.26z"/>
				</g>
			</g>
			<g>
				<path class="st4" d="M92.43,33.13c0.15-0.38,0.47-0.52,0.78-0.55c0.31-0.01,0.65,0.09,0.84,0.45c-0.34,0.22-0.56,0.28-0.8,0.3
					C93.02,33.34,92.79,33.31,92.43,33.13z"/>
			</g>
		</g>
		<g>
			<path class="st11" d="M87.62,25.98c0,0.06-0.1,0.11-0.22,0.11s-0.22-0.05-0.22-0.11c0-0.06,0.1-0.11,0.22-0.11
				S87.62,25.92,87.62,25.98z"/>
			<path class="st11" d="M100.3,24.28c0,0.05-0.11,0.09-0.25,0.09c-0.14,0-0.25-0.04-0.25-0.09c0-0.05,0.11-0.09,0.25-0.09
				C100.19,24.19,100.3,24.23,100.3,24.28z"/>
		</g>
		<path class="st2" d="M89.95,6.67c0,0,0.75-0.07,1.52,1.14l-1.13,0.92C90.34,8.74,90.53,7.77,89.95,6.67z"/>
		<g>
			<path class="st1" d="M91.47,7.82c0,0,0.43-0.09,1.5,3.14c1.08,3.23,6.12,8.44,9.27,11.83c3.14,3.39,1.42,8.65,1.42,8.65
				s3.67-2.44,5.01-8.15c1.35-5.71-0.39-11.42-3.37-14.32C102.32,6.08,96.17,3.68,91.47,7.82z"/>
			<path class="st2" d="M97.17,3.84c0,0,2.66,1.9,4.89,6.45c0,0-1.78-5.08-4.16-6.61C97.91,3.69,97.53,3.8,97.17,3.84z"/>
			<path class="st2" d="M91.9,6.67c0,0-0.29,0.03,3.06,5.94c3.35,5.91,8.52,6.81,9.93,13.54c0,0,0.41-3.73-1.41-6.73
				c0,0,2.03,5.61,5.19,11.52c3.17,5.92,4.61,10.82,4.61,10.82s0.21-4.34-1.86-9.71c-2.07-5.37-2.75-8.76-2.75-8.76
				s2.42,5.36,3.91,8.76c1.49,3.4,1.49,3.4,1.49,3.4s-2.15-6.94-2.73-10.8c-0.58-3.85-1.24-8.7-1.24-8.7s1.49,4.36,1.99,7.75
				c0,0,0.78-3.53-0.25-9.3c-1.03-5.76-9.35-9.66-9.35-9.66s2.81,1.99,3.89,3.64c0,0-3.68-2.58-6.07-3.64c0,0,1.85,1.32,4.42,6.95
				c0,0-0.01,2.65-2.65,1.37C99.43,11.79,94.63,5.72,91.9,6.67z"/>
			<path class="st2" d="M92.64,3.46c0,0,5.62-1.67,8.55,11.36c0,0-2.82-11.85-9.96-10.41C91.23,4.42,91.78,3.79,92.64,3.46z"/>
			<path class="st2" d="M90.21,6.99c0,0,1.66-1.31,4.47,0.33c2.81,1.64,3.52,2.73,3.52,2.73s-2.44-4.59-6.98-5.63
				c0,0-0.88,0.65-1.28,2.26L90.21,6.99z"/>
			<path class="st2" d="M97.17,3.84c0,0,1.74,1.62,2.69,3.86c0,0-3.05-4.34-7.23-4.24C92.64,3.46,95.6,1.97,97.17,3.84z"/>
			<path class="st1" d="M93.59,8.39c0,0,1.12,2.36,2.9,5.13c1.78,2.77,3.46,3.31,3.46,3.31"/>
			<path class="st1" d="M107.45,9.09c0,0,2.53,1.85,3.72,6.37"/>
		</g>
		<g>
			<path class="st12" d="M99.8,37.15c0,0,0.04,1.44-0.79,3.51c0,0-4.3,0.41-7.86,0c-3.56-0.41-4.22,1.65-5.54,4.05
				c-1.32,2.4-6.79,15.39-8.44,20.69l-9.6,18.7l3.31,2.38l6.29-9c0,0,3.48-4.8,4.96-11.42l5.05-8.61l2.55,4.47
				c0,0-0.2,3.64-0.34,6.62h11.81l0.47-1.9c0,0,0.58-0.41,0.58-1.08c0,0,0.66-0.5,0-1.32c0,0,4.39-6.45,5.71-9.76
				c0,0,4.88,3.23,8.69,9.6c0,0-1.99,1.49-4.3,5.05c-2.32,3.56-3.66,4.47-3.66,4.47s2.26,1.65,2.34,3.48c0,0,6.37-4.72,9.19-6.79
				c2.81-2.07,5.21-4.96,5.21-4.96s-4.83-8.36-11.27-15.72c-2.38-2.98-2.71-4.63-8.01-7.03c0,0-1.37-1.44-1.79-5L99.8,37.15z"/>
			<path class="st13" d="M87.18,57.46c0,0-1.34-2.73-0.92-3.97c0.42-1.24,2.84-7.03,2.84-7.03l-3.97,8.85l-2.99,10.76L87.18,57.46z"
				/>
			<g>
				<path class="st14" d="M99.8,37.2l0.29-0.02l-0.29-0.03C99.8,37.15,99.8,37.17,99.8,37.2z"/>
				<path class="st13" d="M114.14,49.6c-2.38-2.98-2.71-4.63-8.01-7.03c0,0-1.37-1.44-1.79-5l-1.26-0.12
					c-0.07,1.04-0.12,2.72,0.11,4.62c0.38,3.14,3.43,1.99,6.99,5.79s11.18,13.65,12.09,16.22c0.79,2.22-8.81,10.08-11.43,12.18
					c0.1,0.26,0.16,0.53,0.18,0.81c0,0,6.37-4.72,9.19-6.79c2.81-2.07,5.21-4.96,5.21-4.96S120.58,56.97,114.14,49.6z"/>
			</g>
			<path class="st15" d="M116.64,64.08c0,0,0.9-0.6,2.27-0.32c0,0-1.06,0.11-1.46,0.32c0,0,0.93-0.01,1.46,0.42
				c0,0-1.73-0.14-3,0.22L116.64,64.08z"/>
			<path class="st13" d="M107.95,54.48c0,0-3.81,5.77-7.03,6.84c0,0,1.94-0.17,2.48-0.38c0,0-2.35,3.48-3.41,4.47
				c0,0,0.93,0,1.63-0.5c0,0-1.32,1.53-1.86,1.32c0,0,0,0,1.44,0c0,0-1.48,1.57-3.71,2.32h3.71l0.47-1.9c0,0,0.66-0.5,0.58-1.08
				c0,0,0.79-0.5,0-1.32C102.24,64.25,106.54,57.92,107.95,54.48z"/>
			<path class="st13" d="M84.03,59.26c0,0-3.96,10.15-4.79,11.79c-0.83,1.64-9.37,14.72-9.37,14.72l1.01,0.73
				c0,0,9.76-11.49,11.25-20.42L84.03,59.26z"/>
		</g>
		<path class="st7" d="M89.58,90.36c0,0,1.37,1.6,2.17,5.89l0.24,2.75C91.99,98.99,91.07,94.08,89.58,90.36z"/>
		<g>
			<path class="st3" d="M102.11,155.89l1.43,3.91c0,0,0.81-0.18,1.55,0.66c0.74,0.83,2.3,2.07,4.47,1.52l-2.85-7.78
				C106.71,154.2,104.85,155.53,102.11,155.89z"/>
			<path class="st5" d="M102.94,158.16c0,0,0.11-1.54,1.5-1.9s5.12,5.72,5.12,5.72l-2.85-7.78c0,0-1.87,1.34-4.6,1.7L102.94,158.16
				L102.94,158.16z"/>
		</g>
		<g>
			<path class="st16" d="M109.56,161.98c-2.17,0.56-3.72-0.68-4.47-1.52c-0.74-0.83-1.55-0.66-1.55-0.66l-0.43,2.92
				c-1.06,0.65-2.64,1.05-3.85,1.28c0.26,1.39,0.62,3.48,0.92,5.64l0,0c1.42,1.27,2.49,3.01,2.49,3.01l8.32-6.45L109.56,161.98z"/>
			<g>
				<path class="st17" d="M100.64,173.82l2.04-1.17c-0.74-1.3-2.49-3.01-2.49-3.01h0C100.38,171.06,100.55,172.51,100.64,173.82z"/>
			</g>
			<path class="st18" d="M111.86,168.24l-0.87-2.05l-8.32,6.45l-2.04,1.17c0,0-0.11,0.1-0.26,0.26c0.22,0.41,0.31,0.68,0.31,0.68
				v1.55C104.04,175.69,111.86,168.24,111.86,168.24z"/>
			<path class="st11" d="M102.28,162.97c0.26-0.01,0.51,0.04,0.75,0.15c0.67,0.32,2.1,1.09,2.65,2.07c0.73,1.3,0.21,1.55-0.56,1.01
				c-0.77-0.54-1.73-1.78-3.53-2.79C100.95,163.09,101.76,163,102.28,162.97z"/>
			<path class="st11" d="M101.11,163.63c0.26-0.01,0.51,0.04,0.75,0.15c0.67,0.32,2.1,1.09,2.65,2.07c0.73,1.3,0.21,1.55-0.56,1.01
				c-0.77-0.54-1.73-1.78-3.53-2.79C99.78,163.75,100.58,163.65,101.11,163.63z"/>
			<path class="st11" d="M103.08,166.34c-0.55-0.98-1.98-1.75-2.65-2.07c-0.23-0.11-0.49-0.16-0.75-0.15
				c-0.12,0.01-0.26,0.02-0.4,0.03c0.04,0.2,0.08,0.42,0.12,0.65c1.53,0.96,2.41,2.05,3.12,2.55
				C103.3,167.89,103.82,167.65,103.08,166.34z"/>
			<path class="st11" d="M101.93,166.93c-0.52-0.91-1.79-1.64-2.5-1.99c0.08,0.47,0.17,0.98,0.26,1.52
				c0.71,0.61,1.23,1.17,1.68,1.48C102.14,168.48,102.66,168.23,101.93,166.93z"/>
			<path class="st16" d="M109.56,161.98c-0.94,0.24-1.76,0.15-2.46-0.11c0.03,0.91-0.02,2.14-0.32,3.32
				c-0.39,1.52-3.62,3.96-5.68,5.4c0.93,1.05,1.57,2.07,1.57,2.07l8.32-6.45L109.56,161.98z"/>
		</g>
		<g>
			<path class="st16" d="M88.34,171.84c0,0,2.11-2.79,3.23-5.77c1.12-2.98,2.48-4.92,2.48-4.92s0.43-0.85,2.3-0.66
				c1.86,0.19,2.59,1.82,2.59,1.82s1.57,7.67,1.76,12.45c0,0-1.18-3.85-6.18-5.03C91.56,169.05,88.34,171.84,88.34,171.84z"/>
			<path class="st11" d="M93.95,165.33c0,0-0.46,0.26-0.42,0.6c0.04,0.33,2.24-0.11,3.42,0.56c1.17,0.67,1.59,0.2,0.66-0.56
				C96.7,165.16,94.9,165.04,93.95,165.33z"/>
			<path class="st11" d="M93.42,166.2c0,0-0.52,0.3-0.47,0.68c0.05,0.38,2.56-0.12,3.9,0.63c1.34,0.76,1.81,0.23,0.76-0.64
				C96.55,166.01,94.5,165.87,93.42,166.2z"/>
			<path class="st11" d="M92.82,167.32c0,0-0.63,0.36-0.57,0.82c0.06,0.46,3.1-0.15,4.72,0.77c1.62,0.92,2.19,0.27,0.92-0.78
				C96.61,167.09,94.13,166.91,92.82,167.32z"/>
			<path class="st16" d="M97.8,163.91c0.69,2.37,1.11,6.15,1.31,8.37c1.2,1.27,1.57,2.48,1.57,2.48
				c-0.19-4.78-1.76-12.45-1.76-12.45s-0.72-1.63-2.59-1.82c-0.06-0.01-0.11-0.01-0.16-0.01C96.66,161.06,97.28,162.09,97.8,163.91z
				"/>
			<path class="st11" d="M94.14,163.32c0,0-0.46,0.26-0.42,0.6c0.04,0.33,2.24-0.11,3.42,0.56c1.17,0.67,1.59,0.2,0.66-0.56
				C96.88,163.16,95.09,163.03,94.14,163.32z"/>
			<path class="st11" d="M94.01,164.4c0,0-0.46,0.26-0.42,0.6c0.04,0.33,2.24-0.11,3.42,0.56c1.17,0.67,1.59,0.2,0.66-0.56
				C96.75,164.24,94.95,164.11,94.01,164.4z"/>
			<path class="st18" d="M88.34,172.96v2.67c0,0,2.05,3.23,6.7,2.85c4.65-0.37,5.65-2.17,5.65-2.17v-1.55c0,0-1.24-3.79-6.18-5.03
				c-3.13-0.62-6.18,2.11-6.18,2.11V172.96z"/>
			<path class="st19" d="M88.34,171.84c0,0,2.03,5.94,12.35,2.92"/>
		</g>
		<g>
			<path class="st11" d="M99.8,20.85c-0.19-1.19-2.03-1.99-3.89-0.83c-1.86,1.16-2.32,3.72-2.32,3.72s1.78,1.21,4.72,0.25
				C99.8,23.54,100,22.13,99.8,20.85z"/>
			<path class="st20" d="M96.65,20.81c1.41-0.54,2.59,0.07,3.2,0.55c-0.01-0.17-0.03-0.35-0.06-0.52c-0.19-1.19-2.03-1.99-3.89-0.83
				c-1.86,1.16-2.32,3.72-2.32,3.72s0.02,0.01,0.05,0.03C94.14,22.94,94.99,21.44,96.65,20.81z"/>
			<path class="st21" d="M96.32,19.8c0,0-0.74,0.84-0.45,2.83c0.29,1.99,2.19,1.74,2.81,1.12c0.62-0.62,1-2.02,0.27-3.95
				C98.95,19.8,98.21,18.95,96.32,19.8z"/>
			<path class="st22" d="M97.71,20.78c0.75,0.02,1.25,0.13,1.58,0.27c-0.06-0.39-0.17-0.81-0.34-1.26c0,0-0.74-0.84-2.64,0
				c0,0-0.39,0.45-0.49,1.44C96.23,20.98,96.83,20.76,97.71,20.78z"/>
			<g>
				<path class="st2" d="M93.59,23.74c-0.05-0.79,0.14-1.58,0.48-2.31c0.34-0.73,0.89-1.41,1.62-1.86c0.72-0.42,1.62-0.69,2.49-0.46
					c0.85,0.18,1.61,0.92,1.62,1.74c-0.43-0.66-1.1-0.94-1.74-0.97c-0.65-0.03-1.28,0.19-1.85,0.54
					C95.07,21.11,94.3,22.37,93.59,23.74z"/>
			</g>
			<path class="st2" d="M98.47,21.66c0,0.64-0.41,1.16-0.91,1.16c-0.5,0-0.91-0.52-0.91-1.16s0.41-1.16,0.91-1.16
				C98.06,20.5,98.47,21.02,98.47,21.66z"/>
			<path class="st11" d="M97.19,20.99c0,0.15-0.12,0.27-0.27,0.27c-0.15,0-0.27-0.12-0.27-0.27c0-0.15,0.12-0.27,0.27-0.27
				C97.07,20.72,97.19,20.84,97.19,20.99z"/>
			<path class="st11" d="M98.03,22.73c0,0.05-0.04,0.1-0.1,0.1c-0.05,0-0.1-0.04-0.1-0.1c0-0.05,0.04-0.1,0.1-0.1
				C97.98,22.63,98.03,22.67,98.03,22.73z"/>
			<path class="st2" d="M99.19,19.91c0,0,0.3-0.24,0.27-0.69c0,0,0.16,0.55-0.09,0.94L99.19,19.91z"/>
			<path class="st2" d="M98.91,19.69c0,0,0.3-0.24,0.27-0.69c0,0,0.16,0.55-0.09,0.94L98.91,19.69z"/>
			<path class="st2" d="M98.59,19.52c0,0,0.3-0.24,0.27-0.69c0,0,0.16,0.55-0.09,0.94L98.59,19.52z"/>
		</g>
		<g>
			<path class="st11" d="M90.45,24.03c0.2-1.88-0.95-3.97-2.03-3.72c-1.08,0.25-1.24,1.4-1.24,1.4s0,1.61,0.85,2.48
				C88.87,25.07,90.3,25.37,90.45,24.03z"/>
			<path class="st20" d="M88.42,20.31c-0.71,0.16-1.02,0.72-1.15,1.08c0.38-0.15,0.83-0.22,1.2,0.04c0.72,0.52,1.47,2.2,1.64,3.32
				c0.17-0.15,0.3-0.38,0.33-0.72C90.65,22.16,89.5,20.06,88.42,20.31z"/>
			<path class="st21" d="M89,20.35c0,0-0.81,0.94-0.64,2.47c0.17,1.53,0.75,1.87,1.37,1.83c0.62-0.04,0.73-0.5,0.72-1.41
				C90.43,22.34,89.58,20.39,89,20.35z"/>
			<path class="st22" d="M90.42,23.74c0,0.01,0,0.02,0.01,0.03c0.02-0.16,0.02-0.34,0.02-0.52c-0.01-0.91-0.87-2.86-1.45-2.9
				c0,0-0.39,0.37-0.53,1.09C89.08,21.79,90.01,22.54,90.42,23.74z"/>
			<g>
				<path class="st2" d="M87.18,21.71c-0.1-0.58,0.15-1.29,0.79-1.65c0.28-0.18,0.7-0.28,1.12-0.18c0.41,0.12,0.7,0.4,0.9,0.67
					c0.38,0.57,0.54,1.16,0.6,1.74c0.06,0.59,0.03,1.17-0.13,1.74c-0.25-0.54-0.44-1.06-0.63-1.56c-0.2-0.49-0.39-0.98-0.65-1.33
					c-0.28-0.37-0.43-0.47-0.89-0.37C87.88,20.85,87.49,21.2,87.18,21.71z"/>
			</g>
			<path class="st2" d="M89.86,21.34c-0.38,0.09-0.68,0.63-0.68,1.28c0,0.72,0.36,1.3,0.8,1.3c0.18,0,0.34-0.1,0.48-0.26
				C90.36,22.58,90.04,21.74,89.86,21.34z"/>
			<path class="st11" d="M89.46,22.21c0,0.12-0.1,0.22-0.22,0.22c-0.12,0-0.22-0.1-0.22-0.22c0-0.12,0.1-0.22,0.22-0.22
				C89.36,21.99,89.46,22.09,89.46,22.21z"/>
			<path class="st11" d="M90.14,23.63c0,0.04-0.04,0.08-0.08,0.08s-0.08-0.04-0.08-0.08s0.04-0.08,0.08-0.08
				S90.14,23.58,90.14,23.63z"/>
			<path class="st2" d="M87.6,20.81c0,0-0.23-0.18-0.2-0.52c0,0-0.12,0.42,0.07,0.7L87.6,20.81z"/>
			<path class="st2" d="M87.8,20.63c0,0-0.23-0.18-0.2-0.52c0,0-0.12,0.42,0.07,0.7L87.8,20.63z"/>
			<path class="st2" d="M87.42,21.06c0,0-0.23-0.18-0.2-0.52c0,0-0.12,0.42,0.07,0.7L87.42,21.06z"/>
		</g>
	</g>
</g>
<g class="st30">
</g>
</svg>
